<?xml version="1.0" encoding="UTF-8"?>
<svg id="Layer_1" data-name="Layer 1" xmlns="http://www.w3.org/2000/svg" viewBox="0 0 3185.4 415.26">
  <defs>
    <style>
      .cls-1 {
        fill: #313d41;
      }
    </style>
  </defs>
  <path class="cls-1" d="M162,160.38c-18.72-34.91-28.08-59.13-28.08-72.63s3.96-23.4,11.88-29.7c7.91-6.29,18.36-9.45,31.32-9.45s23.4,4.14,31.32,12.42c7.91,8.29,11.88,19.44,11.88,33.48s-5.4,29.16-16.2,45.36h40.5c10.8-20.87,16.2-39.42,16.2-55.62,0-24.48-8.29-44.63-24.84-60.48C219.42,7.92,195.56,0,164.43,0s-57.43,9.27-78.84,27.81c-21.42,18.55-32.13,41.13-32.13,67.77,0,19.09,12.23,52.74,36.72,100.98C30.05,228.24,0,268.38,0,316.98c0,26.28,8.99,49.23,27,68.85,18,19.63,42.74,29.43,74.25,29.43s58.86-9.99,82.08-29.97c23.22-19.98,34.83-45.98,34.83-78.03,0-25.56-6.84-52.02-20.52-79.38-5.05-10.07-16.93-32.58-35.64-67.5ZM130.41,353.97c-7.75,8.1-18.55,12.15-32.4,12.15s-25.65-5.21-35.37-15.66c-9.72-9.72-14.58-22.68-14.58-38.88,0-31.67,20.16-57.96,60.48-78.84,1.8,3.24,4.67,8.73,8.64,16.47,3.96,7.75,6.66,13.05,8.1,15.93,11.15,20.88,16.74,38.53,16.74,52.92,0,15.85-3.87,27.81-11.61,35.91Z"/>
  <path class="cls-1" d="M360.17,207.36l1.62-13.5h84.78v-41.58h-79.38c9.72-75.24,14.58-113.94,14.58-116.1,0-23.4-13.69-35.1-41.04-35.1-12.61,0-22.68,1.44-30.24,4.32l-17.28,146.88h-46.44c-3.24,7.92-4.86,15.93-4.86,24.03s.18,13.96.54,17.55h43.74l2.16,1.08-16.74,143.64c-.73,4.68-1.08,9-1.08,12.96,0,17.64,5.4,32.67,16.2,45.09,10.8,12.42,27.89,18.63,51.3,18.63s43.47-7.2,60.21-21.6c16.74-14.39,25.11-37.98,25.11-70.74,0-41.76-21.06-80.27-63.18-115.56ZM379.62,355.59c-5.05,7.02-11.34,10.53-18.9,10.53-10.45,0-15.66-8.1-15.66-24.3,0-8.28,3.24-39.23,9.72-92.88,21.6,24.12,32.4,48.6,32.4,73.44,0,15.12-2.52,26.19-7.56,33.21Z"/>
  <path class="cls-1" d="M863.45,141.48c-11.53,0-21.42,3.6-29.7,10.8-6.84,6.84-10.26,15.85-10.26,27s4.5,20.71,13.5,28.62c7.91,6.84,19.44,10.26,34.56,10.26h4.86c-1.08,43.56-11.7,82.62-31.86,117.18-11.53,19.09-25.74,28.62-42.66,28.62-19.8,0-29.7-10.26-29.7-30.78,0-7.56,2.97-35.01,8.91-82.35,5.94-47.33,8.91-71.36,8.91-72.09,0-17.63-11.88-26.46-35.64-26.46-12.96,0-25.2,2.16-36.72,6.48l-16.31,136.68c-12.08,16.75-26.08,31.14-42.01,43.14-24.84,18.72-50.76,28.08-77.76,28.08-18.36,0-33.75-6.39-46.17-19.17-12.42-12.77-18.63-32.21-18.63-58.32s6.39-48.6,19.17-67.5c12.77-18.9,27.62-28.35,44.55-28.35,7.91,0,15.2,2.25,21.87,6.75,6.66,4.51,9.99,12.96,9.99,25.38s-5.49,25.3-16.47,38.61c-10.99,13.32-27.63,22.33-49.95,27l7.56,31.86c38.52-6.83,68.85-18.9,90.99-36.18s33.21-39.77,33.21-67.5c-.36-20.52-9.18-36.8-26.46-48.87-17.28-12.06-39.78-18.09-67.5-18.09-38.88,0-72.28,13.86-100.17,41.58-27.9,27.73-41.85,60.13-41.85,97.2s11.15,67.5,33.48,91.26c20.87,21.96,49.32,32.94,85.32,32.94,21.95,0,43.28-3.96,63.99-11.88,20.7-7.91,38.61-18.17,53.73-30.78,8.46-7.25,16.17-14.54,23.19-21.87,3.12,13.48,8.97,25.9,17.58,37.26,13.5,17.82,33.75,26.73,60.75,26.73s51.03-9.26,72.09-27.81c21.06-18.54,37.26-42.39,48.6-71.55,11.34-29.16,17.19-59.94,17.55-92.34v-9.18l19.98-3.24v-30.78c-4.68,1.44-12.42,2.89-23.22,4.32-6.84-28.43-23.95-42.66-51.3-42.66ZM869.93,188.46c-10.45,0-15.66-3.05-15.66-9.18,0-3.59,2.51-5.4,7.56-5.4s8.82,4.86,11.34,14.58h-3.24Z"/>
  <path class="cls-1" d="M1435.3,366.12c-11.16,0-16.74-8.28-16.74-24.84,0-8.99,4.13-40.85,12.42-95.58,2.16-14.04,3.24-23.57,3.24-28.62,0-18.71-7.02-34.2-21.06-46.44-14.04-12.23-33.4-18.36-58.05-18.36s-45.82,8.64-63.45,25.92c-1.08-17.63-13.69-26.46-37.8-26.46-7.92,0-19.44,1.98-34.56,5.94l-15.05,128.84c-13.39,20.62-29.43,37.97-48.13,52.06-24.84,18.72-50.76,28.08-77.76,28.08-18.36,0-33.75-6.39-46.17-19.17-12.42-12.77-18.63-32.21-18.63-58.32s6.39-48.6,19.17-67.5c12.77-18.9,27.62-28.35,44.55-28.35,7.91,0,15.2,2.25,21.87,6.75,6.66,4.51,9.99,12.96,9.99,25.38s-5.49,25.3-16.47,38.61c-10.99,13.32-27.63,22.33-49.95,27l7.56,31.86c38.52-6.83,68.85-18.9,90.99-36.18s33.21-39.77,33.21-67.5c-.36-20.52-9.18-36.8-26.46-48.87-17.28-12.06-39.78-18.09-67.5-18.09-38.88,0-72.28,13.86-100.17,41.58-27.9,27.73-41.85,60.13-41.85,97.2s11.15,67.5,33.48,91.26c20.87,21.96,49.32,32.94,85.32,32.94,21.95,0,43.28-3.96,63.99-11.88,20.7-7.91,38.61-18.17,53.73-30.78,7.79-6.68,14.96-13.39,21.53-20.14l-6.95,59.56h72.9c.72-8.64,7.56-62.28,20.52-160.92,2.16-15.47,7.29-28.35,15.39-38.61,8.1-10.26,18-15.39,29.7-15.39s20.06,3.24,25.11,9.72c5.04,6.48,7.56,14.58,7.56,24.3l-12.96,120.42c0,15.12,5.4,29.52,16.2,43.2,10.8,13.69,27.35,20.52,49.68,20.52,47.16,0,80.27-31.67,99.36-95.04-2.52-7.56-9.91-17.82-22.14-30.78-12.61,51.12-31.14,76.68-55.62,76.68Z"/>
  <path class="cls-1" d="M1786.29,77.76c-8.29-1.8-16.93-2.7-25.92-2.7-19.44,0-36.54,4.68-51.3,14.04-.73,5.05-2.08,15.48-4.05,31.32-1.98,15.85-4.68,36.64-8.1,62.37-3.43,25.74-6.03,46.17-7.83,61.29-64.45,29.89-96.66,66.07-96.66,108.54,0,18.01,5.75,32.76,17.28,44.28,11.52,11.53,28.43,17.28,50.76,17.28s41.76-8.01,58.32-24.03c16.55-16.01,27.72-43.28,33.48-81.81l34.02-230.58ZM1678.29,323.46c-2.16,14.4-6.03,24.93-11.61,31.59-5.59,6.67-10.89,9.99-15.93,9.99-12.24,0-18.36-6.48-18.36-19.44,0-18,16.92-36.54,50.76-55.62l-4.86,33.48Z"/>
  <path class="cls-1" d="M1925.34,232.74c-22.5-18-49.06-28.08-79.65-30.24,24.48-.72,45.36-9.72,62.64-27,17.28-17.28,26-36.99,26.19-59.13.18-22.14-6.57-42.2-20.25-60.21-8.29-10.44-18.55-19.62-30.78-27.54-12.24-7.91-28.81-14.49-49.68-19.71-20.88-5.21-44.47-7.83-70.74-7.83-49.68,0-89.64,11.26-119.88,33.75-30.24,22.5-45.36,50.85-45.36,85.05,0,19.09,7.37,35.83,22.14,50.22,14.76,14.4,35.82,22.14,63.18,23.22l5.94-39.96c-12.96-1.43-23.41-5.48-31.32-12.15-7.92-6.66-11.88-14.85-11.88-24.57,0-20.16,11.15-36.26,33.48-48.33,22.32-12.06,45.17-18.09,68.58-18.09,35.64,0,63.72,7.38,84.24,22.14,19.08,14.04,28.35,31.32,27.81,51.84s-8.29,35.91-23.22,46.17c-14.94,10.26-33.21,15.39-54.81,15.39l-4.86,39.96c31.32,0,56.07,7.02,74.25,21.06,18.17,14.04,27.27,31.32,27.27,51.84s-6.67,36.99-19.98,49.41c-13.32,12.42-30.51,18.63-51.57,18.63s-39.51-4.13-55.35-12.42l-16.74,45.36c14.39,10.45,41.49,15.66,81.27,15.66s73.52-10.08,101.25-30.24c27.72-20.16,41.58-48.24,41.58-84.24,0-27.35-11.26-50.03-33.75-68.04Z"/>
  <path class="cls-1" d="M2171.3,163.35c-9-7.37-21.6-11.07-37.8-11.07-22.33,0-40.69,8.46-55.08,25.38v-1.08c0-16.2-10.99-24.3-32.94-24.3-13.32,0-26.46,1.98-39.42,5.94l-18.9,164.7c-.36,3.24-.54,8.29-.54,15.12,0,22.33,5.4,40.77,16.2,55.35,10.8,14.58,27.89,21.87,51.3,21.87s42.84-7.2,58.32-21.6c15.47-14.39,23.22-35.45,23.22-63.18,0-38.15-19.44-72.54-58.32-103.14,8.64-18.71,20.25-28.08,34.83-28.08s21.87,7.92,21.87,23.76c0,3.6-.36,7.38-1.08,11.34h2.16c14.76,0,26.73-3.86,35.91-11.61,9.18-7.74,13.77-17.73,13.77-29.97s-4.51-22.05-13.5-29.43ZM2100.56,327.78c0,25.57-7.92,38.34-23.76,38.34-12.24,0-18.36-7.56-18.36-22.68,0-.35,3.24-26.46,9.72-78.3,21.6,20.88,32.4,41.77,32.4,62.64Z"/>
  <path class="cls-1" d="M2421.58,184.14c-22.14-21.24-49.77-31.86-82.89-31.86-43.2,0-78.84,13.5-106.92,40.5-27.73,26.65-41.58,62.64-41.58,108,0,32.4,11.25,59.59,33.75,81.54,22.49,21.96,53,32.94,91.53,32.94s71.36-13.95,98.55-41.85c27.18-27.89,40.77-65.07,40.77-111.51,0-30.59-11.07-56.51-33.21-77.76ZM2361.1,342.36c-11.7,19.09-26.19,28.62-43.47,28.62s-30.16-6.83-38.61-20.52c-8.46-13.68-12.69-30.96-12.69-51.84,1.08-29.51,7.37-54,18.9-73.44,11.52-19.44,25.83-29.16,42.93-29.16s29.78,7.56,38.07,22.68c8.28,14.4,12.42,33.84,12.42,58.32s-5.86,46.26-17.55,65.34Z"/>
  <path class="cls-1" d="M3163.26,289.44c-12.61,51.12-31.14,76.68-55.62,76.68-11.16,0-16.74-8.28-16.74-24.84,0-8.99,4.13-40.85,12.42-95.58,2.16-14.04,3.24-23.57,3.24-28.62,0-18.71-7.02-34.2-21.06-46.44-14.04-12.23-33.4-18.36-58.05-18.36s-45.82,8.64-63.45,25.92c-1.08-17.63-13.69-26.46-37.8-26.46-7.92,0-19.44,1.98-34.56,5.94l-.72,6.16c-20.94,7.41-41.05,13.46-60.3,18.14-9.37-27.35-27.36-41.04-54-41.04-12.24,0-22.5,3.78-30.78,11.34-6.84,6.84-10.26,15.85-10.26,27s4.32,20.71,12.96,28.62c8.28,6.84,19.98,10.26,35.1,10.26h4.86c0,27-4.32,57.06-12.96,90.18-3.97,16.2-9.91,29.7-17.82,40.5-7.92,10.8-16.93,16.2-27,16.2h-1.62c-21.96,0-32.94-12.96-32.94-38.88,0-5.75,3.59-33.83,10.8-84.24,5.04-35.64,7.56-56.7,7.56-63.18,0-17.63-11.7-26.46-35.1-26.46-12.96,0-25.2,2.16-36.72,6.48l-18.9,161.46c-3.24,11.88-8.46,21.96-15.66,30.24-7.21,8.29-15.39,12.42-24.57,12.42s-16.2-3.05-21.06-9.18c-4.86-6.12-7.29-12.33-7.29-18.63s3.42-34.83,10.26-85.59c5.4-40.31,8.1-63.9,8.1-70.74,0-17.63-12.78-26.46-38.34-26.46-9.72,0-21.06,2.16-34.02,6.48-5.05,48.25-11.34,103.68-18.9,166.32-.36,5.05-.54,9.37-.54,12.96,0,20.88,6.93,38.97,20.79,54.27,13.85,15.31,31.59,22.95,53.19,22.95,36.36,0,63.36-13.5,81-40.5,15.47,26.65,38.96,39.96,70.47,39.96s57.15-9.9,76.95-29.7c33.48-33.48,50.94-87.48,52.38-162,0-5.4-.19-9.53-.54-12.42,16.16-3.79,33.23-8.75,51.17-14.85l-25.25,216.27h72.9c.72-8.64,7.56-62.28,20.52-160.92,2.16-15.47,7.29-28.35,15.39-38.61,8.1-10.26,18-15.39,29.7-15.39s20.06,3.24,25.11,9.72c5.04,6.48,7.56,14.58,7.56,24.3l-12.96,120.42c0,15.12,5.4,29.52,16.2,43.2,10.8,13.69,27.35,20.52,49.68,20.52,47.16,0,80.27-31.67,99.36-95.04-2.52-7.56-9.91-17.82-22.14-30.78ZM2782.03,188.46c-10.45,0-15.66-3.05-15.66-9.18,0-3.59,2.51-5.4,7.56-5.4s8.82,4.86,11.34,14.58h-3.24Z"/>
</svg>